<svg id="visual" viewBox="0 0 900 450" width="900" height="450" xmlns="http://www.w3.org/2000/svg" xmlns:xlink="http://www.w3.org/1999/xlink" version="1.1"><rect x="0" y="0" width="900" height="450" fill="#FFF3F2"></rect><defs><linearGradient id="grad1_0" x1="50%" y1="0%" x2="100%" y2="100%"><stop offset="10%" stop-color="#fff3f2" stop-opacity="1"></stop><stop offset="90%" stop-color="#fff3f2" stop-opacity="1"></stop></linearGradient></defs><defs><linearGradient id="grad2_0" x1="0%" y1="0%" x2="50%" y2="100%"><stop offset="10%" stop-color="#fff3f2" stop-opacity="1"></stop><stop offset="90%" stop-color="#fff3f2" stop-opacity="1"></stop></linearGradient></defs><g transform="translate(900, 0)"><path d="M0 247.5C-20.9 219.5 -41.9 191.6 -76.5 184.8C-111.2 178 -159.6 192.3 -175 175C-190.4 157.7 -172.7 108.7 -179.2 74.2C-185.8 39.8 -216.7 19.9 -247.5 0L0 0Z" fill="#E11D48"></path></g><g transform="translate(0, 450)"><path d="M0 -247.5C25.6 -231.3 51.2 -215.1 85.7 -206.9C120.2 -198.8 163.6 -198.5 175 -175C186.5 -151.5 166 -104.6 172.8 -71.6C179.5 -38.5 213.5 -19.3 247.5 0L0 0Z" fill="#E11D48"></path></g></svg>